<?xml version="1.0" encoding="iso-8859-1"?>
<!-- Generator: Adobe Illustrator 19.0.0, SVG Export Plug-In . SVG Version: 6.00 Build 0)  -->
<svg version="1.1" id="Capa_1" xmlns="http://www.w3.org/2000/svg" xmlns:xlink="http://www.w3.org/1999/xlink" x="0px" y="0px"
	 viewBox="0 0 480.003 480.003" style="enable-background:new 0 0 480.003 480.003;" xml:space="preserve">
<g>
	<g>
		<rect x="424" y="96" width="16" height="232"/>
	</g>
</g>
<g>
	<g>
		<path d="M477.659,90.345l-37.656-37.656V8.001c0-4.418-3.582-8-8-8h-192c-4.418,0-8,3.582-8,8v44.688l-37.656,37.656
			c-1.5,1.5-2.344,3.534-2.344,5.656v163.344c-7.279-7.901-16.545-13.703-26.832-16.8l7.632-103
			c1.683-22.433-12.478-43.013-34.032-49.456l20.728-55.272c1.555-4.135-0.536-8.749-4.672-10.304
			c-0.903-0.34-1.859-0.513-2.824-0.512h-20.072l3.792-13.896c1.162-4.263-1.352-8.66-5.614-9.822
			c-0.686-0.187-1.394-0.282-2.106-0.282h-32c-4.152-0.017-7.626,3.145-8,7.28l-4,44.36l-4-44.36c-0.374-4.135-3.848-7.297-8-7.28
			h-40C27.584,0,24.002,3.581,24,7.999c0,0.934,0.163,1.861,0.482,2.738l28.096,77.264h-1.504
			C24.565,88,3.073,109.489,3.072,135.998c0,1.184,0.044,2.367,0.131,3.547l9.192,124.08c-20.125,26.17-15.226,63.699,10.944,83.825
			c0.22,0.169,0.441,0.337,0.664,0.503v124.048c0,4.418,3.582,8,8,8h144c4.418,0,8-3.582,8-8v-3.408
			c25.994,7.486,52.902,11.325,79.952,11.408h41.752c42.086,0.025,82.687-15.555,113.952-43.728l33.696-30.328
			c3.283-2.957,3.547-8.016,0.59-11.298c-0.186-0.207-0.383-0.404-0.59-0.59l-33.696-30.328
			c-31.265-28.173-71.866-43.753-113.952-43.728h-13.704l-21.6-28.8c-1.511-2.014-3.882-3.2-6.4-3.2h-56v-116
			c0-19.882,16.118-36,36-36s36,16.118,36,36v24c-0.049,33.088,26.735,59.952,59.823,60.001
			c16.785,0.025,32.811-6.993,44.177-19.345v91.344h16V99.313l32-32l32,32v364.688h-72v16h80c4.418,0,8-3.582,8-8v-376
			C480.002,93.88,479.159,91.845,477.659,90.345z M140.459,40.001l-18,48h-8l13.096-48H140.459z M103.347,16.001h14.184l-19.64,72
			h-1.088L103.347,16.001z M43.427,16.001h21.272l6.544,72h-1.6L43.427,16.001z M27.627,114.225
			c6.03-6.554,14.542-10.265,23.448-10.224h73.848c17.673-0.006,32.005,14.317,32.01,31.99c0,0.804-0.03,1.608-0.09,2.41
			l-5.152,69.6H84.155v16h66.352l-1.192,16.064c-0.44,0-0.864-0.064-1.312-0.064h-88c-11.575-0.001-22.9,3.368-32.592,9.696
			l-4.28-57.696h24.872v-16H21.955l-1.152-16h107.2v-16H19.579l-0.416-5.6C18.456,129.511,21.529,120.734,27.627,114.225z
			 M171.683,337.041c-2.294,1.472-3.681,4.01-3.68,6.736v120.224h-128V307.337c0.009-10.675,8.661-19.327,19.336-19.336h68.664v-16
			H59.339c-19.506,0.022-35.314,15.83-35.336,35.336v17.896c-13.966-19.848-9.198-47.261,10.651-61.227
			c7.421-5.221,16.276-8.018,25.349-8.005h88c24.3,0.038,43.969,19.769,43.931,44.069
			C191.91,315.036,184.281,328.964,171.683,337.041z M330.011,338.049c29.395,4.642,56.816,17.702,78.944,37.6l22.16,19.912
			l-56.84,12.632l3.472,15.616l42.256-9.408l-11.08,9.976c-21.741,19.55-48.598,32.509-77.432,37.36
			c-11.554-21.526-18.209-45.339-19.488-69.736C312.041,372.548,318.356,353.626,330.011,338.049z M305.707,336.001
			c2.056,0,4.072,0.2,6.112,0.28h0.008c-10.365,16.735-15.846,36.035-15.824,55.72c1.004,24.914,7.327,49.324,18.544,71.592
			c-2.944,0.168-5.872,0.408-8.8,0.408h-41.792c-27.095-0.06-54.033-4.103-79.952-12v-104l0.16-0.136
			c25.875-7.83,52.758-11.827,79.792-11.864H305.707z M260.003,304.001l12,16h-8.048c-20.938,0.029-41.813,2.309-62.264,6.8
			c3.524-7.12,5.591-14.871,6.08-22.8H260.003z M424.003,52.689l-37.656,37.656c-1.5,1.5-2.344,3.534-2.344,5.656v100
			c0,24.301-19.699,44-44,44c-24.301,0-44-19.699-44-44v-24c0.033-28.683-23.193-51.962-51.877-51.995
			c-13.474-0.015-26.427,5.207-36.123,14.563v-30.568h80v-16h-68.688l26.344-26.344c1.5-1.5,2.344-3.534,2.344-5.656v-40h16v16h16
			v-16h16v16h16v-16h16v16h16v-16h16v16h16v-16h16v16h16v-16h16V52.689z"/>
	</g>
</g>
<g>
	<g>
		<rect x="144" y="272" width="16" height="16"/>
	</g>
</g>
<g>
	<g>
		<rect x="360" y="368" width="16" height="16"/>
	</g>
</g>
<g>
	<g>
		<path d="M320.003,40.001c-13.255,0-24,10.745-24,24s10.745,24,24,24s24-10.745,24-24S333.258,40.001,320.003,40.001z
			 M320.003,72.001c-4.418,0-8-3.582-8-8c0-4.418,3.582-8,8-8c4.418,0,8,3.582,8,8C328.003,68.419,324.421,72.001,320.003,72.001z"
			/>
	</g>
</g>
<g>
	<g>
		<rect x="64" y="176" width="16" height="16"/>
	</g>
</g>
<g>
</g>
<g>
</g>
<g>
</g>
<g>
</g>
<g>
</g>
<g>
</g>
<g>
</g>
<g>
</g>
<g>
</g>
<g>
</g>
<g>
</g>
<g>
</g>
<g>
</g>
<g>
</g>
<g>
</g>
</svg>
