<?xml version="1.0" encoding="iso-8859-1"?>
<!-- Generator: Adobe Illustrator 19.0.0, SVG Export Plug-In . SVG Version: 6.00 Build 0)  -->
<svg version="1.1" id="Capa_1" xmlns="http://www.w3.org/2000/svg" xmlns:xlink="http://www.w3.org/1999/xlink" x="0px" y="0px"
	 viewBox="0 0 480 480" style="enable-background:new 0 0 480 480;" xml:space="preserve">
<g>
	<g>
		<path d="M328.007,280v16h-56V32c0-17.673-14.327-32-32-32h-208c-17.673,0-32,14.327-32,32v416c0,17.673,14.327,32,32,32h208
			c17.673,0,32-14.327,32-32V312h64c4.418,0,8-3.582,8-8v-24H328.007z M256.007,448c0,8.837-7.163,16-16,16h-208
			c-8.837,0-16-7.163-16-16v-24h240V448z M256.007,296h-112v-8.408c52.835-4.418,92.084-50.831,87.666-103.666
			c-4.418-52.835-50.831-92.084-103.666-87.666c-52.835,4.418-92.084,50.831-87.666,103.666
			c3.906,46.703,40.963,83.761,87.666,87.666V304c0,4.418,3.582,8,8,8h120v96h-240V72h240V296z M136.007,272
			c-44.183,0-80-35.817-80-80s35.817-80,80-80s80,35.817,80,80C215.958,236.163,180.169,271.951,136.007,272z M256.007,56h-240V32
			c0-8.837,7.163-16,16-16h208c8.837,0,16,7.163,16,16V56z"/>
	</g>
</g>
<g>
	<g>
		<path d="M471.839,196.288l-9.368-9.368c-27.928-28.074-63.57-47.213-102.4-54.984c33.102-22.034,42.074-66.73,20.04-99.832
			C366.774,12.068,344.308,0.021,320.239,0h-32.232v16h32.232c30.913,0.035,55.965,25.087,56,56c-0.035,30.913-25.087,55.965-56,56
			h-0.232l0.232,16c49.128-0.134,96.268,19.391,130.912,54.224l9.368,9.368c4.63,4.643,4.63,12.157,0,16.8l-3.888,3.88
			c-4.698,4.494-12.102,4.494-16.8,0c-10.889-10.887-28.542-10.885-39.428,0.004c-5.23,5.231-8.167,12.326-8.164,19.724v204.12
			c-0.009,6.557-5.323,11.871-11.88,11.88h-8.232c-6.557-0.009-11.871-5.323-11.88-11.88v-88.24
			c-0.018-15.394-12.494-27.867-27.888-27.88h-44.352v16h44.352c6.557,0.009,11.871,5.323,11.88,11.88v88.24
			c0.018,15.393,12.495,27.867,27.888,27.88h8.232c15.39-0.018,27.862-12.49,27.88-27.88V248
			c-0.004-6.561,5.312-11.883,11.873-11.887c3.157-0.002,6.185,1.253,8.415,3.487c11.034,10.534,28.398,10.534,39.432,0l3.88-3.88
			C482.711,224.824,482.711,207.184,471.839,196.288z"/>
	</g>
</g>
<g>
	<g>
		<path d="M372.871,185.552c-6.897-6.867-17.674-7.934-25.784-2.552l-8.624,5.752c-1.49,0.992-3.43,0.992-4.92,0L324.919,183
			c-9.377-6.277-22.068-3.764-28.345,5.613c-5.435,8.119-4.362,18.949,2.561,25.843l22.4,22.4c7.985,7.966,20.911,7.966,28.896,0
			l22.4-22.4C380.814,206.481,380.832,193.549,372.871,185.552z M361.607,203.152h-0.048l-22.4,22.4
			c-1.735,1.725-4.537,1.725-6.272,0l-22.4-22.4c-1.759-1.702-1.804-4.508-0.102-6.267c1.507-1.557,3.918-1.796,5.702-0.565
			l8.624,5.752c6.86,4.59,15.812,4.59,22.672,0l8.624-5.752c2.015-1.39,4.775-0.884,6.165,1.13
			C363.402,199.233,363.163,201.645,361.607,203.152z"/>
	</g>
</g>
<g>
	<g>
		<path d="M167.071,192l-7.128-56.992c-0.491-3.94-3.798-6.923-7.768-7.008h-0.168c-3.908,0.001-7.243,2.826-7.888,6.68
			l-9.712,58.064l-6.672-26.688c-1.091-4.281-5.447-6.867-9.728-5.776c-1.755,0.447-3.306,1.477-4.4,2.92l-21.6,28.8h-20v16h24
			c2.518,0,4.889-1.186,6.4-3.2l13.92-18.552l11.92,47.696c0.892,3.559,4.091,6.056,7.76,6.056h0.328
			c3.784-0.152,6.942-2.937,7.568-6.672l6.976-41.864l1.192,9.544c0.508,3.996,3.908,6.992,7.936,6.992h40v-16H167.071z"/>
	</g>
</g>
<g>
	<g>
		<rect x="128.01" y="328" width="112" height="16"/>
	</g>
</g>
<g>
	<g>
		<rect x="128.01" y="360" width="40" height="16"/>
	</g>
</g>
<g>
	<g>
		<rect x="184.01" y="360" width="56" height="16"/>
	</g>
</g>
<g>
	<g>
		<path d="M40.727,252.36l-14.248,7.28c16.344,32.195,49.422,52.445,85.528,52.36v-16C81.915,296.071,54.347,279.193,40.727,252.36z
			"/>
	</g>
</g>
<g>
	<g>
		<rect x="112.01" y="440" width="48" height="16"/>
	</g>
</g>
<g>
</g>
<g>
</g>
<g>
</g>
<g>
</g>
<g>
</g>
<g>
</g>
<g>
</g>
<g>
</g>
<g>
</g>
<g>
</g>
<g>
</g>
<g>
</g>
<g>
</g>
<g>
</g>
<g>
</g>
</svg>
