<?xml version="1.0" encoding="iso-8859-1"?>
<!-- Generator: Adobe Illustrator 19.0.0, SVG Export Plug-In . SVG Version: 6.00 Build 0)  -->
<svg version="1.1" id="Capa_1" xmlns="http://www.w3.org/2000/svg" xmlns:xlink="http://www.w3.org/1999/xlink" x="0px" y="0px"
	 viewBox="0 0 480.3 480.3" style="enable-background:new 0 0 480.3 480.3;" xml:space="preserve">
<g>
	<g>
		<path d="M415.925,420.936c-10.335-7.962-24.993-6.931-34.112,2.4l-4.168,4.168l-73.496-118.712v-56l27.816,16.688
			c12.59,7.56,28.709,5.581,39.096-4.8l47.44-47.432c9.373-9.372,9.375-24.568,0.003-33.941c-0.001-0.001-0.002-0.002-0.003-0.003
			l-1.376-1.376c-9.381-9.347-24.555-9.347-33.936,0l-31.696,31.688l-47.52-36.96c-1.113-20.475-11.248-39.403-27.672-51.68
			c33.618-11.074,51.893-47.304,40.819-80.922c-11.074-33.618-47.304-51.893-80.922-40.819
			c-33.618,11.074-51.893,47.304-40.819,80.922c4.103,12.455,11.927,23.351,22.418,31.219c-12.138,3.726-22.961,10.836-31.2,20.496
			l-74.688,19.92c-14.005,3.732-23.752,16.411-23.76,30.904V247.4c-0.149,11.939,8.275,22.271,20,24.528
			c13.069,2.209,25.455-6.595,27.664-19.664c0.222-1.311,0.334-2.638,0.336-3.968v-41.208l25.6-4.208l-17.352,64.848
			c-0.18,0.673-0.272,1.367-0.272,2.064c0.007,11.909,3.236,23.593,9.344,33.816l-12.096,46.2c-0.714,2.695-2.772,4.829-5.44,5.64
			l-68.096,23.84c-0.519,0.18-1.017,0.414-1.488,0.696c-20.468,12.328-27.067,38.914-14.739,59.383
			c0.665,1.104,1.379,2.177,2.139,3.217l8.8,12c4.762,7.73,13.161,12.47,22.24,12.552c3.604,0.003,7.161-0.818,10.4-2.4
			c12.41-6.012,17.597-20.945,11.585-33.355c-0.372-0.769-0.784-1.518-1.233-2.245l-3.72-6.016l76.984-27.432
			c8.724-3.115,16.1-9.156,20.872-17.096l25.368-42.296h11.2l98.736,126.96c8.331,10.789,21.208,17.088,34.84,17.04h9.072
			c10.615,0.03,20.801-4.187,28.288-11.712l10.624-10.624c9.754-9.766,9.745-25.59-0.02-35.344
			C417.193,422.025,416.573,421.464,415.925,420.936z M304.149,197.096l37.512,29.176c6.368,4.955,15.429,4.392,21.136-1.312
			l-0.008,0.024l31.696-31.688c3.124-3.123,8.188-3.123,11.312,0l1.376,1.376c3.123,3.124,3.123,8.188,0,11.312l-47.44,47.44
			c-5.193,5.189-13.25,6.178-19.544,2.4l-36.04-21.656V197.096z M208.149,64.296c0-26.51,21.49-48,48-48s48,21.49,48,48
			c0,26.51-21.49,48-48,48C229.652,112.265,208.18,90.793,208.149,64.296z M185.989,370.352c-2.865,4.766-7.292,8.392-12.528,10.264
			L87.117,411.36c-4.162,1.482-6.335,6.058-4.852,10.22c0.19,0.532,0.435,1.043,0.732,1.524l8.92,14.4
			c2.602,4.215,1.294,9.74-2.921,12.342c-0.271,0.168-0.552,0.32-0.839,0.458c-4.721,1.774-10.023-0.251-12.36-4.72l-9.128-12.48
			c-8.888-12.138-6.253-29.183,5.886-38.071c0.457-0.335,0.925-0.655,1.402-0.961l0.016,0.032l67.096-23.496
			c7.779-2.504,13.74-8.806,15.808-16.712l9.144-34.912c11.162,10.158,25.463,16.193,40.528,17.104L185.989,370.352z
			 M407.127,445.935c-0.199,0.246-0.41,0.481-0.634,0.705l-10.624,10.632c-4.494,4.514-10.607,7.043-16.976,7.024h-9.072
			c-8.675-0.031-16.859-4.034-22.208-10.864L246.461,323.384c-1.515-1.948-3.844-3.087-6.312-3.088h-29.496
			c-27.488-0.024-49.921-22.006-50.504-49.488l20.28-75.768c1.132-4.271-1.413-8.651-5.684-9.782
			c-1.089-0.289-2.227-0.344-3.34-0.162l-37.848,6.224c-7.735,1.25-13.418,7.932-13.408,15.768v41.208
			c-0.001,2.348-1.034,4.577-2.824,6.096c-1.82,1.538-4.227,2.194-6.576,1.792c-3.994-0.983-6.749-4.634-6.6-8.744v-60.744
			c0.001-7.246,4.871-13.587,11.872-15.456l77.184-20.544c1.676-0.447,3.161-1.427,4.232-2.792
			c11.693-15.003,30.787-22.218,49.48-18.696c24.393,5.13,41.7,26.869,41.232,51.792v130.064c-0.001,1.486,0.411,2.943,1.192,4.208
			l80,129.232c2.323,3.758,7.253,4.921,11.011,2.598c0.527-0.326,1.015-0.712,1.453-1.15l11.312-11.312
			c3.279-3.586,8.721-4.156,12.672-1.328C409.644,436.428,410.243,442.08,407.127,445.935z"/>
	</g>
</g>
<g>
	<g>
		<rect x="256.151" y="464.3" width="64" height="16"/>
	</g>
</g>
<g>
	<g>
		<rect x="224.151" y="464.3" width="16" height="16"/>
	</g>
</g>
<g>
	<g>
		<rect x="160.151" y="432.3" width="96" height="16"/>
	</g>
</g>
<g>
	<g>
		<rect x="0.149" y="464.3" width="16" height="16"/>
	</g>
</g>
<g>
	<g>
		<rect x="32.151" y="464.3" width="24" height="16"/>
	</g>
</g>
<g>
	<g>
		<rect x="432.151" y="464.3" width="48" height="16"/>
	</g>
</g>
<g>
</g>
<g>
</g>
<g>
</g>
<g>
</g>
<g>
</g>
<g>
</g>
<g>
</g>
<g>
</g>
<g>
</g>
<g>
</g>
<g>
</g>
<g>
</g>
<g>
</g>
<g>
</g>
<g>
</g>
</svg>
