<?xml version="1.0" encoding="iso-8859-1"?>
<!-- Generator: Adobe Illustrator 19.0.0, SVG Export Plug-In . SVG Version: 6.00 Build 0)  -->
<svg version="1.1" id="Capa_1" xmlns="http://www.w3.org/2000/svg" xmlns:xlink="http://www.w3.org/1999/xlink" x="0px" y="0px"
	 viewBox="0 0 480 480" style="enable-background:new 0 0 480 480;" xml:space="preserve">
<g>
	<g>
		<path d="M320,64h-16c-21.77,0.005-42.363,9.879-56,26.848V56c26.497-0.031,47.969-21.503,48-48c0-4.418-3.582-8-8-8h-8
			c-26.497,0.031-47.969,21.503-48,48v2.848C218.363,33.879,197.77,24.005,176,24h-16c-4.418,0-8,3.582-8,8
			c0.044,39.746,32.254,71.956,72,72h8v32c0,4.418,3.582,8,8,8h16c39.746-0.044,71.956-32.254,72-72C328,67.582,324.418,64,320,64z
			 M278.984,16c-3.566,13.758-15.764,23.526-29.968,24C252.582,26.242,264.78,16.474,278.984,16z M224,88
			c-27.826-0.035-51.419-20.465-55.432-48H176c27.826,0.035,51.419,20.465,55.432,48H224z M256,128h-7.432
			c4.013-27.535,27.606-47.965,55.432-48h7.432C307.419,107.535,283.826,127.965,256,128z"/>
	</g>
</g>
<g>
	<g>
		<path d="M128,96c-13.255,0-24-10.745-24-24V0H88v72c0.026,22.08,17.92,39.974,40,40c13.255,0,24,10.745,24,24v32h16v-32
			C167.974,113.92,150.08,96.026,128,96z"/>
	</g>
</g>
<g>
	<g>
		<path d="M400,32v40c0,13.255-10.745,24-24,24c-22.08,0.026-39.974,17.92-40,40v32h16v-32c0-13.255,10.745-24,24-24
			c22.08-0.026,39.974-17.92,40-40V32H400z"/>
	</g>
</g>
<g>
	<g>
		<rect x="400" width="16" height="16"/>
	</g>
</g>
<g>
	<g>
		<rect x="192" y="128" width="16" height="16"/>
	</g>
</g>
<g>
	<g>
		<rect x="328" y="32" width="16" height="16"/>
	</g>
</g>
<g>
	<g>
		<rect x="112" y="152" width="16" height="16"/>
	</g>
</g>
<g>
	<g>
		<path d="M472,408h-80v-48h48c13.255,0,24-10.745,24-24v-88c0-13.255-10.745-24-24-24h-48v-16c0-13.255-10.745-24-24-24H112
			c-13.255,0-24,10.745-24,24v152h-8c-4.418,0-8,3.582-8,8v40H8c-4.418,0-8,3.582-8,8c0.04,35.33,28.67,63.96,64,64h352
			c35.33-0.04,63.96-28.67,64-64C480,411.582,476.418,408,472,408z M392,272h16c4.418,0,8,3.582,8,8v24c0,4.418-3.582,8-8,8h-16V272
			z M392,328h16c13.255,0,24-10.745,24-24v-24c0-13.255-10.745-24-24-24h-16v-16h48c4.418,0,8,3.582,8,8v88c0,4.418-3.582,8-8,8h-48
			V328z M168,200h104v48h-48c-4.078,0-7.503,3.067-7.952,7.12l-16,144c-0.486,4.391,2.68,8.345,7.071,8.831
			c0.292,0.032,0.586,0.049,0.881,0.049h144c4.418,0,8-3.581,8.001-7.999c0-0.294-0.016-0.588-0.049-0.881l-16-144h-0.176
			c-0.12-1.645-0.755-3.209-1.816-4.472c-1.52-1.689-3.687-2.652-5.96-2.648h-48v-48h80c4.418,0,8,3.582,8,8v208
			c0,4.418-3.582,8-8,8H152v-56c0-4.418-3.582-8-8-8h-8v-31.752c0.013-19.729,5.163-39.114,14.944-56.248
			c11.172-19.57,17.051-41.714,17.056-64.248V200z M224.936,320l6.224-56h95.904l-6.184,56H224.936z M319.064,336l-6.264,56h-95.864
			l6.264-56H319.064z M328.936,392L336,328.432L343.064,392H328.936z M104,208c0-4.418,3.582-8,8-8h40v7.752
			c-0.013,19.729-5.163,39.114-14.944,56.248c-11.172,19.57-17.051,41.714-17.056,64.248V360h-16V208z M88,376h48v48H88V376z
			 M416,464H64c-23.413-0.029-43.401-16.92-47.336-40H72v8c0,4.418,3.582,8,8,8h288c10.134-0.042,19.15-6.445,22.528-16h72.8
			C459.394,447.077,439.41,463.967,416,464z"/>
	</g>
</g>
<g>
</g>
<g>
</g>
<g>
</g>
<g>
</g>
<g>
</g>
<g>
</g>
<g>
</g>
<g>
</g>
<g>
</g>
<g>
</g>
<g>
</g>
<g>
</g>
<g>
</g>
<g>
</g>
<g>
</g>
</svg>
