<?xml version="1.0" encoding="iso-8859-1"?>

<svg version="1.1" xmlns="http://www.w3.org/2000/svg" xmlns:xlink="http://www.w3.org/1999/xlink"       
     width="800px" height="1000px" viewBox="0 0 800 1000" xml:space="preserve" x="0px" y="0px">

  <svg xmlns="http://www.w3.org/2000/svg" id="Outline" viewBox="0 0 512 512" width="200px" height="200px" x="30px" y="0px"><path d="M472,224V152a31.978,31.978,0,0,0-48.2-27.577A32,32,0,0,0,360,128v96H152V128a32,32,0,0,0-63.795-3.577A31.978,31.978,0,0,0,40,152v72a32,32,0,0,0,0,64v72a31.978,31.978,0,0,0,48.205,27.577A32,32,0,0,0,152,384V288H360v96a32,32,0,0,0,63.8,3.577A31.978,31.978,0,0,0,472,360V288a32,32,0,0,0,0-64ZM40,272a16,16,0,0,1,0-32ZM72,376a16.019,16.019,0,0,1-16-16V152a16,16,0,0,1,32,0V360A16.019,16.019,0,0,1,72,376Zm64,8a16,16,0,0,1-32,0V128a16,16,0,0,1,32,0Zm16-112V240H360v32ZM408,384a16,16,0,0,1-32,0V128a16,16,0,0,1,32,0Zm48-24a16,16,0,0,1-32,0V152a16,16,0,0,1,32,0Zm16-88V240a16,16,0,0,1,0,32Z" fill="#edf2f4"/></svg>

  <svg height="512pt" viewBox="-9 0 512 512.00045" width="150px" xmlns="http://www.w3.org/2000/svg" x="330px" y="-215px"><path d="m398.328125 167.714844c1.664063 1.664062 3.839844 2.492187 6.015625 2.492187s4.355469-.832031 6.019531-2.492187l59.289063-59.289063c16.984375-16.988281 16.984375-44.632812 0-61.621093-16.988282-16.992188-44.636719-16.984376-61.621094 0l-3.6875 3.679687-3.679688-3.679687c-16.996093-16.988282-44.632812-16.988282-61.621093 0-8.230469 8.230468-12.765625 19.171874-12.765625 30.808593s4.535156 22.582031 12.765625 30.808594zm-47.25-108.875c5.179687-5.179688 11.976563-7.761719 18.773437-7.761719 6.796876 0 13.601563 2.585937 18.777344 7.761719l9.699219 9.703125c1.597656 1.59375 3.761719 2.492187 6.015625 2.492187 2.257812 0 4.421875-.898437 6.019531-2.492187l9.703125-9.703125c10.359375-10.363282 27.199219-10.351563 37.550782 0 10.351562 10.351562 10.351562 27.199218 0 37.550781l-53.273438 53.269531-53.265625-53.269531c-5.015625-5.015625-7.78125-11.6875-7.78125-18.773437.003906-7.09375 2.765625-13.765626 7.78125-18.777344zm0 0" fill="#edf2f4"/><path d="m484.148438 493.652344c-72.746094 8.070312-130.4375-24.140625-131.015626-24.464844-1.957031-1.117188-4.277343-1.417969-6.453124-.820312-.917969.246093-92.421876 24.773437-166.121094 8.414062-45.945313-10.214844-89.28125-42.578125-120.925782-66.207031-4.25-3.171875-8.277343-6.183594-12.058593-8.945313-5.164063-3.777344-13.375-6.917968-20.613281-9.691406-3.25-1.242188-7.703126-2.949219-8.660157-3.546875-.828125-.648437-1.28125-1.601563-1.28125-2.691406v-19.726563c.410157-15.609375 65.855469-255.792968 76.003907-286.347656.25-.359375 1.226562-1.066406 1.945312-1.40625l129.515625-59.15625 41.871094 54.511719c2.066406 2.824219 1.871093 6.773437-.457031 9.378906l-41.375 46.382813c-2.707032 3.039062-7.265626 3.371093-10.09375 1.007812l-16.730469-15.425781c-1.960938-1.804688-4.75-2.402344-7.363281-1.921875-2.621094.46875-4.964844 2.335937-6.175782 4.710937-1.398437 2.753907-14.066406 6.128907-26.988281 6.226563l-4.210937-.425782c-3.375-.402343-6.648438 1.359376-8.296876 4.332032-1.65625 2.972656-1.375 6.644531.703126 9.339844 3.59375 4.644531 6.394531 8.375 7.980468 10.515624l8.28125 140.769532c-5.132812 19.992187-9.835937 25.671875-11.003906 26.808594-3.449219 1.089843-5.953125 4.3125-5.953125 8.117187 0 4.699219 3.8125 8.511719 8.511719 8.511719 9.652344 0 17.855468-12.683594 24.441406-37.445313 67.691406-50.648437 126.765625-2.847656 131.398438 1.085938 21.5 21.578125 22.832031 35.910156 22.875 36.546875.101562 4.609375 3.871093 8.320312 8.511718 8.320312 4.699219 0 8.511719-3.808594 8.511719-8.507812 0-1.957032-.710937-18.75-22.738281-43.011719 20.773437-25.539063 44.425781-40.25 70.476562-43.453125 44.914063-5.53125 82.667969 24.671875 83.046875 24.972656 3.648438 2.96875 9 2.421875 11.96875-1.21875 2.96875-3.636718 2.433594-8.988281-1.199219-11.960937-1.757812-1.433594-43.550781-35.054688-95.722656-28.707031-30.496094 3.699218-57.871094 20.191406-81.46875 49.058593-19.152344-13.023437-74.066406-42.5-135.480468-3.949219l-7.617188-129.457031c-.078125-1.398437-.507812-2.753906-1.238281-3.945312 7.617187-.902344 16.6875-2.890625 23.265625-7.21875l10.964844 10.105469c10.207031 8.566406 25.15625 7.5 34.039062-2.445313l41.375-46.386719c7.632812-8.550781 8.269531-21.480468 1.382812-30.910156l-46.125-60.050781c-2.40625-3.136719-6.664062-4.203125-10.285156-2.554688l-135.566406 61.921875c-1.417969.621094-8.609375 4.101563-10.972656 11.210938-4.820313 14.46875-77.027344 271.980468-77.027344 292.042968v19.757813c0 6.339844 2.847656 12.203125 7.804688 16.089844 2.480468 1.941406 6.1875 3.410156 13.074218 6.042969 5.625 2.15625 13.324219 5.097656 16.648438 7.53125 3.742187 2.734374 7.71875 5.707031 11.921875 8.847656 32.878906 24.554687 77.90625 58.179687 127.421875 69.183594 70.488281 15.664062 153.234375-3.273438 170.96875-7.742188 11.84375 6.121094 55.296875 26.34375 112.183594 26.34375 8.394531 0 17.085937-.4375 26.003906-1.433594 4.671875-.515625 8.035156-4.726562 7.519531-9.394531-.523437-4.679687-4.746094-8.070313-9.398437-7.519531zm0 0" fill="#edf2f4"/><path d="m442.484375 390.535156c-.46875-4.257812-4.074219-7.570312-8.460937-7.570312-4.699219 0-8.511719 3.8125-8.511719 8.511718 0 5.683594 4.199219 24.929688 58.175781 33.921876.472656.078124.945312.117187 1.40625.117187 4.085938 0 7.691406-2.949219 8.386719-7.109375.769531-4.636719-2.363281-9.019531-6.996094-9.796875-37.746094-6.289063-43.496094-16.941406-44-18.074219zm0 0" fill="#edf2f4"/><path d="m279.058594 434.214844c-111.464844 23.875-159.164063-52.390625-161.136719-55.644532-2.433594-4.019531-7.648437-5.3125-11.667969-2.898437-4.03125 2.417969-5.335937 7.644531-2.917968 11.675781.5625.933594 14.105468 23.164063 43.0625 42.101563 19.953124 13.042969 50.378906 26.332031 91.53125 26.332031 13.707031 0 28.601562-1.472656 44.691406-4.917969 4.597656-.984375 7.527344-5.511719 6.542968-10.105469-.988281-4.59375-5.507812-7.535156-10.105468-6.542968zm0 0" fill="#edf2f4"/></svg>

  <svg version="1.1" id="Capa_1" xmlns="http://www.w3.org/2000/svg" xmlns:xlink="http://www.w3.org/1999/xlink" x="585px" y="35px"
	 viewBox="0 0 480.003 480.003" style="enable-background:new 0 0 480.003 480.003;" xml:space="preserve" width="180px" height="150px">
    <g>
      <g>
        <rect x="424" y="96" width="16" height="232" fill="#edf2f4"/>
      </g>
    </g>
    <g>
      <g>
        <path d="M477.659,90.345l-37.656-37.656V8.001c0-4.418-3.582-8-8-8h-192c-4.418,0-8,3.582-8,8v44.688l-37.656,37.656
          c-1.5,1.5-2.344,3.534-2.344,5.656v163.344c-7.279-7.901-16.545-13.703-26.832-16.8l7.632-103
          c1.683-22.433-12.478-43.013-34.032-49.456l20.728-55.272c1.555-4.135-0.536-8.749-4.672-10.304
          c-0.903-0.34-1.859-0.513-2.824-0.512h-20.072l3.792-13.896c1.162-4.263-1.352-8.66-5.614-9.822
          c-0.686-0.187-1.394-0.282-2.106-0.282h-32c-4.152-0.017-7.626,3.145-8,7.28l-4,44.36l-4-44.36c-0.374-4.135-3.848-7.297-8-7.28
          h-40C27.584,0,24.002,3.581,24,7.999c0,0.934,0.163,1.861,0.482,2.738l28.096,77.264h-1.504
          C24.565,88,3.073,109.489,3.072,135.998c0,1.184,0.044,2.367,0.131,3.547l9.192,124.08c-20.125,26.17-15.226,63.699,10.944,83.825
          c0.22,0.169,0.441,0.337,0.664,0.503v124.048c0,4.418,3.582,8,8,8h144c4.418,0,8-3.582,8-8v-3.408
          c25.994,7.486,52.902,11.325,79.952,11.408h41.752c42.086,0.025,82.687-15.555,113.952-43.728l33.696-30.328
          c3.283-2.957,3.547-8.016,0.59-11.298c-0.186-0.207-0.383-0.404-0.59-0.59l-33.696-30.328
          c-31.265-28.173-71.866-43.753-113.952-43.728h-13.704l-21.6-28.8c-1.511-2.014-3.882-3.2-6.4-3.2h-56v-116
          c0-19.882,16.118-36,36-36s36,16.118,36,36v24c-0.049,33.088,26.735,59.952,59.823,60.001
          c16.785,0.025,32.811-6.993,44.177-19.345v91.344h16V99.313l32-32l32,32v364.688h-72v16h80c4.418,0,8-3.582,8-8v-376
          C480.002,93.88,479.159,91.845,477.659,90.345z M140.459,40.001l-18,48h-8l13.096-48H140.459z M103.347,16.001h14.184l-19.64,72
          h-1.088L103.347,16.001z M43.427,16.001h21.272l6.544,72h-1.6L43.427,16.001z M27.627,114.225
          c6.03-6.554,14.542-10.265,23.448-10.224h73.848c17.673-0.006,32.005,14.317,32.01,31.99c0,0.804-0.03,1.608-0.09,2.41
          l-5.152,69.6H84.155v16h66.352l-1.192,16.064c-0.44,0-0.864-0.064-1.312-0.064h-88c-11.575-0.001-22.9,3.368-32.592,9.696
          l-4.28-57.696h24.872v-16H21.955l-1.152-16h107.2v-16H19.579l-0.416-5.6C18.456,129.511,21.529,120.734,27.627,114.225z
          M171.683,337.041c-2.294,1.472-3.681,4.01-3.68,6.736v120.224h-128V307.337c0.009-10.675,8.661-19.327,19.336-19.336h68.664v-16
          H59.339c-19.506,0.022-35.314,15.83-35.336,35.336v17.896c-13.966-19.848-9.198-47.261,10.651-61.227
          c7.421-5.221,16.276-8.018,25.349-8.005h88c24.3,0.038,43.969,19.769,43.931,44.069
          C191.91,315.036,184.281,328.964,171.683,337.041z M330.011,338.049c29.395,4.642,56.816,17.702,78.944,37.6l22.16,19.912
          l-56.84,12.632l3.472,15.616l42.256-9.408l-11.08,9.976c-21.741,19.55-48.598,32.509-77.432,37.36
          c-11.554-21.526-18.209-45.339-19.488-69.736C312.041,372.548,318.356,353.626,330.011,338.049z M305.707,336.001
          c2.056,0,4.072,0.2,6.112,0.28h0.008c-10.365,16.735-15.846,36.035-15.824,55.72c1.004,24.914,7.327,49.324,18.544,71.592
          c-2.944,0.168-5.872,0.408-8.8,0.408h-41.792c-27.095-0.06-54.033-4.103-79.952-12v-104l0.16-0.136
          c25.875-7.83,52.758-11.827,79.792-11.864H305.707z M260.003,304.001l12,16h-8.048c-20.938,0.029-41.813,2.309-62.264,6.8
          c3.524-7.12,5.591-14.871,6.08-22.8H260.003z M424.003,52.689l-37.656,37.656c-1.5,1.5-2.344,3.534-2.344,5.656v100
          c0,24.301-19.699,44-44,44c-24.301,0-44-19.699-44-44v-24c0.033-28.683-23.193-51.962-51.877-51.995
          c-13.474-0.015-26.427,5.207-36.123,14.563v-30.568h80v-16h-68.688l26.344-26.344c1.5-1.5,2.344-3.534,2.344-5.656v-40h16v16h16
          v-16h16v16h16v-16h16v16h16v-16h16v16h16v-16h16v16h16v-16h16V52.689z" fill="#edf2f4"/>
      </g>
    </g>
    <g>
      <g>
        <rect x="144" y="272" width="16" height="16" fill="#edf2f4"/>
      </g>
    </g>
    <g>
      <g>
        <rect x="360" y="368" width="16" height="16" fill="#edf2f4"/>
      </g>
    </g>
    <g>
      <g>
        <path d="M320.003,40.001c-13.255,0-24,10.745-24,24s10.745,24,24,24s24-10.745,24-24S333.258,40.001,320.003,40.001z
          M320.003,72.001c-4.418,0-8-3.582-8-8c0-4.418,3.582-8,8-8c4.418,0,8,3.582,8,8C328.003,68.419,324.421,72.001,320.003,72.001z" fill="#edf2f4"
          />
      </g>
    </g>
    <g>
      <g>
        <rect x="64" y="176" width="16" height="16" fill="#edf2f4"/>
      </g>
    </g>
    <g>
    </g>
    <g>
    </g>
    <g>
    </g>
    <g>
    </g>
    <g>
    </g>
    <g>
    </g>
    <g>
    </g>
    <g>
    </g>
    <g>
    </g>
    <g>
    </g>
    <g>
    </g>
    <g>
    </g>
    <g>
    </g>
    <g>
    </g>
    <g>
    </g>
  </svg>

  <svg version="1.1" id="Capa_1" xmlns="http://www.w3.org/2000/svg" xmlns:xlink="http://www.w3.org/1999/xlink" x="55px" y="280px"
	 viewBox="0 0 479.982 479.982" style="enable-background:new 0 0 479.982 479.982;" xml:space="preserve" width="180px" height="150px">
    <g>
      <g>
        <path d="M451.991,103.982h-32c-4.418,0-8,3.582-8,8v8c0-4.418-3.582-8-8-8h-24c-4.22-0.009-7.721,3.261-8,7.472l-0.552,8.528
          h-15.448v-16c0-4.418-3.582-8-8-8h-32c-4.418,0-8,3.582-8,8v48c0,4.418,3.582,8,8,8h32c4.418,0,8-3.582,8-8v-16h14.4
          l-4.368,65.448c-0.716,8.265-7.656,14.596-15.952,14.552h-50.08v-3.432c-0.012-3.081-1.792-5.881-4.576-7.2
          c-10.834-5.061-22.321-8.588-34.128-10.48c-1.282-0.184-2.589-0.052-3.808,0.384c-4.404-1.342-8.917-2.295-13.488-2.848v-21.824
          c2.372-1.213,4.67-2.568,6.88-4.056c26.88-18.808,49.12-37.696,49.12-78.344v-8.2c-0.039-24.325-10.108-47.556-27.832-64.216
          c-31.185-28.994-78.562-31.77-112.92-6.616c-34.748-6.252-67.986,16.849-74.238,51.598c-0.667,3.708-1.005,7.467-1.01,11.234v120
          c0,4.418,3.582,8,8,8c30.589,0.052,60.015-11.72,82.128-32.856c1.897,1.251,3.857,2.404,5.872,3.456v21.824
          c-4.572,0.542-9.088,1.484-13.496,2.816c-1.216-0.435-2.521-0.567-3.8-0.384c-11.807,1.892-23.294,5.419-34.128,10.48
          c-2.784,1.319-4.564,4.119-4.576,7.2v0.264c-30.253,33.984-47.288,77.707-48,123.2c0,21.944,1.048,47.2,7.544,64H67.991v-16
          c0-4.418-3.582-8-8-8h-32c-4.418,0-8,3.582-8,8v48c0,4.418,3.582,8,8,8h32c4.418,0,8-3.582,8-8v-16h45.736
          c-8.973,17.306-13.682,36.506-13.736,56h16c0.041-13.763,2.758-27.386,8-40.112v0.112c0,4.418,3.582,8,8,8h32c4.418,0,8-3.582,8-8
          v-32h100.16l4.608,5.76c15.014,18.816,23.204,42.168,23.232,66.24h16c-0.035-27.704-9.463-54.578-26.744-76.232l-6.12-7.648
          l-3.072-9.216c-7.446-22.371-6.735-46.655,2.008-68.552l0.448-1.12c9.928-3.11,16.89-12.045,17.48-22.432v-0.328l86.712-18.576
          c14.717-3.225,25.225-16.23,25.288-31.296v-84.6c0,4.418,3.582,8,8,8h32c4.418,0,8-3.582,8-8v-48
          C459.991,107.564,456.409,103.982,451.991,103.982z M339.991,151.982h-16v-32h16V151.982z M51.991,431.982h-16v-32h16V431.982z
          M113.983,404.606l0.56,3.4h-13.28c-4.568-6.36-9.272-22.888-9.272-64.024c0.663-35.237,11.803-69.478,32-98.36
          c0,0,0,48.584,0,48.584C113.439,318.11,109.935,380.302,113.983,404.606z M207.191,16.134
          c37.941-2.556,71.313,24.867,76.16,62.584l-43.784-21.896c-1.534-0.771-3.278-1.024-4.968-0.72l-92.944,16.4
          C148.23,41.048,175.108,17.93,207.191,16.134z M99.991,191.678V79.982c0.032-24.777,18.899-45.466,43.568-47.776
          c-12.758,15.78-19.671,35.484-19.568,55.776v8.2c0,34.32,15.88,53.112,36.992,69.464
          C144.094,180.835,122.643,189.991,99.991,191.678z M139.991,96.182v-7.136l94.792-16.728l49.168,24.584
          c-0.232,29.792-13.84,44.624-42.248,64.52c-17.857,12.433-41.567,12.433-59.424,0C153.631,141.358,139.991,126.486,139.991,96.182
          z M171.991,218.15c5.214-1.429,10.594-2.158,16-2.168c4.418,0,8-3.582,8-8v-23.336c10.484,2.79,21.516,2.79,32,0v23.336
          c0,4.418,3.582,8,8,8c5.406,0.01,10.786,0.739,16,2.168v12.8l-40,8.6l-40-8.6V218.15z M128.463,384.886
          c-0.491-23.92,1.577-47.824,6.168-71.304c2.084,1.442,4.328,2.636,6.688,3.56c8.065,21.493,8.413,45.119,0.984,66.84h-10.312
          C130.76,384.001,129.551,384.311,128.463,384.886z M155.991,431.982h-16v-32h16V431.982z M171.991,391.982c0-4.418-3.582-8-8-8
          h-4.8c6.055-20.904,6.055-43.096,0-64h105.28c-7.512,23.435-7.369,48.652,0.408,72H171.991z M283.991,294.782
          c0,4.344-6.84,9.2-16,9.2h-112c-9.16,0-16-4.856-16-9.2v-69.024c5.193-2.144,10.542-3.89,16-5.224v16.904
          c-0.001,3.772,2.632,7.032,6.32,7.824l48,10.328c1.107,0.242,2.253,0.242,3.36,0l48-10.328c3.688-0.792,6.321-4.052,6.32-7.824
          v-16.912c5.458,1.334,10.807,3.08,16,5.224V294.782z M383.343,260.23l-83.352,17.856v-38.104h50.08
          c16.645,0.051,30.531-12.706,31.888-29.296l5.52-82.704h8.512v116.6h0C395.962,252.117,390.705,258.622,383.343,260.23z
          M443.991,151.982h-16v-32h16V151.982z"/>
      </g>
    </g>
    <g>
    </g>
    <g>
    </g>
    <g>
    </g>
    <g>
    </g>
    <g>
    </g>
    <g>
    </g>
    <g>
    </g>
    <g>
    </g>
    <g>
    </g>
    <g>
    </g>
    <g>
    </g>
    <g>
    </g>
    <g>
    </g>
    <g>
    </g>
    <g>
    </g>
  </svg>

  <svg id="Capa_1" enable-background="new 0 0 508.35 508.35" height="150px" viewBox="0 0 508.35 508.35" width="150px" xmlns="http://www.w3.org/2000/svg" x="340px" y="280px"><path d="m438.524 268.369c.265-12.736-4.827-25.127-13.97-33.998l-90.645-87.94c-3.314-3.216-7.983-4.54-12.494-3.545-.595.131-1.173.306-1.737.511l-112.158-140.575c-2.583-3.237-7.302-3.768-10.541-1.185-3.238 2.583-3.768 7.303-1.185 10.541l114.248 143.191-6.829 17.824-70.149 53.975c-4.4 3.386-10.325 4.183-15.465 2.079l-7.487-3.065c-10.92-4.47-22.309-7.706-33.932-9.674l-1.851-34.596c-.389-7.286-3.366-14.218-8.38-19.518l-151.411-160.048c-2.847-3.009-7.594-3.141-10.602-.294-3.009 2.847-3.141 7.593-.294 10.602l151.41 160.047c2.572 2.719 4.099 6.273 4.298 10.011l1.795 33.535c-7.736 2.214-13.976 8.575-15.627 16.904l-33.386 168.384c-.785 3.958-3.837 7.081-7.776 7.957l-44.361 9.858c-19.211 4.269-32.628 20.996-32.628 40.675v22.934c0 14 11.39 25.391 25.39 25.391h123.989c9.622 0 18.875-3.528 26.053-9.936l220.354-196.658c9.503-8.482 15.107-20.651 15.371-33.387zm-49.086-47.167-82.482 91.652c-1.768-19.681-1.698-39.524.234-59.192l6.868-69.891c1.082-.841 1.915-1.96 2.406-3.239l8.415-21.963zm-110.904-10.094 1.874-1.442-18.03 67.787c-8.082 30.388-10.452 61.594-7.086 92.81l-35.963 39.962c6.519-51.603 19.722-102.074 39.36-150.342zm-9.432 143.809c-1.249-24.78 1.351-49.468 7.772-73.608l19.869-74.7-4.48 45.587c-2.47 25.137-2.042 50.547 1.257 75.589zm144.062-64.352-220.354 196.658c-4.427 3.951-10.132 6.127-16.065 6.127h-123.989c-5.729 0-10.39-4.661-10.39-10.391v-6.229h50.072c4.142 0 7.5-3.358 7.5-7.5s-3.358-7.5-7.5-7.5h-50.072v-1.705c0-12.595 8.587-23.3 20.882-26.033l44.361-9.858c9.744-2.166 17.294-9.891 19.236-19.682l5.323-26.845h18.052c4.142 0 7.5-3.358 7.5-7.5s-3.358-7.5-7.5-7.5h-15.078l3.214-16.212h21.477c4.142 0 7.5-3.358 7.5-7.5s-3.358-7.5-7.5-7.5h-18.502l3.214-16.212h9.288c4.142 0 7.5-3.358 7.5-7.5s-3.358-7.5-7.5-7.5h-6.314l3.214-16.211h27.412c4.142 0 7.5-3.358 7.5-7.5s-3.358-7.5-7.5-7.5h-24.438l6.524-32.904c.66-3.329 3.607-5.684 6.922-5.684.298 0 .6.019.902.058 12.484 1.613 24.722 4.85 36.374 9.619l7.487 3.065c10.064 4.121 21.673 2.56 30.294-4.072l12.748-9.809-10.164 24.983c-22.781 55.989-37.102 114.872-42.617 175.052l-27.108 30.122c-1.33 1.478-3.234 2.326-5.224 2.326h-45.445c-4.142 0-7.5 3.358-7.5 7.5s3.358 7.5 7.5 7.5h45.447c6.235 0 12.204-2.658 16.374-7.292l28.72-31.914.002-.002 185.269-205.867 13.898 13.483c6.255 6.067 9.6 14.207 9.418 22.919-.181 8.714-3.862 16.708-10.364 22.51z"/><path d="m348.649 309.775-12.935 13.518c-2.863 2.993-2.759 7.74.233 10.604 1.454 1.391 3.32 2.081 5.185 2.081 1.975 0 3.947-.775 5.42-2.315l12.935-13.518c2.863-2.993 2.759-7.74-.233-10.604-2.994-2.865-7.741-2.76-10.605.234z"/><path d="m394.427 261.932-23.5 24.56c-2.863 2.993-2.759 7.74.233 10.604 1.454 1.391 3.32 2.081 5.185 2.081 1.975 0 3.947-.775 5.42-2.315l23.5-24.56c2.863-2.993 2.759-7.74-.233-10.604-2.996-2.863-7.743-2.759-10.605.234z"/><path d="m179.146 377.608h7.63c4.142 0 7.5-3.358 7.5-7.5s-3.358-7.5-7.5-7.5h-7.63c-4.142 0-7.5 3.358-7.5 7.5s3.357 7.5 7.5 7.5z"/><path d="m183.146 315.184h9.374c4.142 0 7.5-3.358 7.5-7.5s-3.358-7.5-7.5-7.5h-9.374c-4.142 0-7.5 3.358-7.5 7.5s3.357 7.5 7.5 7.5z"/><path d="m289.008 60.25h44.162c4.143 0 7.5-3.358 7.5-7.5s-3.357-7.5-7.5-7.5h-44.162c-4.143 0-7.5 3.358-7.5 7.5s3.357 7.5 7.5 7.5z"/><path d="m370.048 60.25h11.383c4.143 0 7.5-3.358 7.5-7.5s-3.357-7.5-7.5-7.5h-11.383c-4.143 0-7.5 3.358-7.5 7.5s3.357 7.5 7.5 7.5z"/><path d="m453.581 110.913c0-4.142-3.357-7.5-7.5-7.5h-82.406c-4.143 0-7.5 3.358-7.5 7.5s3.357 7.5 7.5 7.5h82.406c4.143 0 7.5-3.358 7.5-7.5z"/><path d="m499.26 327.071h-45.073c-4.143 0-7.5 3.358-7.5 7.5s3.357 7.5 7.5 7.5h45.073c4.143 0 7.5-3.358 7.5-7.5s-3.358-7.5-7.5-7.5z"/><path d="m392.813 409.933h-45.211c-4.143 0-7.5 3.358-7.5 7.5s3.357 7.5 7.5 7.5h45.211c4.143 0 7.5-3.358 7.5-7.5s-3.358-7.5-7.5-7.5z"/><path d="m436.52 409.933h-10.471c-4.143 0-7.5 3.358-7.5 7.5s3.357 7.5 7.5 7.5h10.471c4.143 0 7.5-3.358 7.5-7.5s-3.358-7.5-7.5-7.5z"/></svg>

  <svg version="1.1" id="Capa_1" xmlns="http://www.w3.org/2000/svg" xmlns:xlink="http://www.w3.org/1999/xlink" x="605px" y="280px"
	 viewBox="0 0 480.3 480.3" style="enable-background:new 0 0 480.3 480.3;" xml:space="preserve" width="150px" height="150px">
    <g>
      <g>
        <path d="M415.925,420.936c-10.335-7.962-24.993-6.931-34.112,2.4l-4.168,4.168l-73.496-118.712v-56l27.816,16.688
          c12.59,7.56,28.709,5.581,39.096-4.8l47.44-47.432c9.373-9.372,9.375-24.568,0.003-33.941c-0.001-0.001-0.002-0.002-0.003-0.003
          l-1.376-1.376c-9.381-9.347-24.555-9.347-33.936,0l-31.696,31.688l-47.52-36.96c-1.113-20.475-11.248-39.403-27.672-51.68
          c33.618-11.074,51.893-47.304,40.819-80.922c-11.074-33.618-47.304-51.893-80.922-40.819
          c-33.618,11.074-51.893,47.304-40.819,80.922c4.103,12.455,11.927,23.351,22.418,31.219c-12.138,3.726-22.961,10.836-31.2,20.496
          l-74.688,19.92c-14.005,3.732-23.752,16.411-23.76,30.904V247.4c-0.149,11.939,8.275,22.271,20,24.528
          c13.069,2.209,25.455-6.595,27.664-19.664c0.222-1.311,0.334-2.638,0.336-3.968v-41.208l25.6-4.208l-17.352,64.848
          c-0.18,0.673-0.272,1.367-0.272,2.064c0.007,11.909,3.236,23.593,9.344,33.816l-12.096,46.2c-0.714,2.695-2.772,4.829-5.44,5.64
          l-68.096,23.84c-0.519,0.18-1.017,0.414-1.488,0.696c-20.468,12.328-27.067,38.914-14.739,59.383
          c0.665,1.104,1.379,2.177,2.139,3.217l8.8,12c4.762,7.73,13.161,12.47,22.24,12.552c3.604,0.003,7.161-0.818,10.4-2.4
          c12.41-6.012,17.597-20.945,11.585-33.355c-0.372-0.769-0.784-1.518-1.233-2.245l-3.72-6.016l76.984-27.432
          c8.724-3.115,16.1-9.156,20.872-17.096l25.368-42.296h11.2l98.736,126.96c8.331,10.789,21.208,17.088,34.84,17.04h9.072
          c10.615,0.03,20.801-4.187,28.288-11.712l10.624-10.624c9.754-9.766,9.745-25.59-0.02-35.344
          C417.193,422.025,416.573,421.464,415.925,420.936z M304.149,197.096l37.512,29.176c6.368,4.955,15.429,4.392,21.136-1.312
          l-0.008,0.024l31.696-31.688c3.124-3.123,8.188-3.123,11.312,0l1.376,1.376c3.123,3.124,3.123,8.188,0,11.312l-47.44,47.44
          c-5.193,5.189-13.25,6.178-19.544,2.4l-36.04-21.656V197.096z M208.149,64.296c0-26.51,21.49-48,48-48s48,21.49,48,48
          c0,26.51-21.49,48-48,48C229.652,112.265,208.18,90.793,208.149,64.296z M185.989,370.352c-2.865,4.766-7.292,8.392-12.528,10.264
          L87.117,411.36c-4.162,1.482-6.335,6.058-4.852,10.22c0.19,0.532,0.435,1.043,0.732,1.524l8.92,14.4
          c2.602,4.215,1.294,9.74-2.921,12.342c-0.271,0.168-0.552,0.32-0.839,0.458c-4.721,1.774-10.023-0.251-12.36-4.72l-9.128-12.48
          c-8.888-12.138-6.253-29.183,5.886-38.071c0.457-0.335,0.925-0.655,1.402-0.961l0.016,0.032l67.096-23.496
          c7.779-2.504,13.74-8.806,15.808-16.712l9.144-34.912c11.162,10.158,25.463,16.193,40.528,17.104L185.989,370.352z
          M407.127,445.935c-0.199,0.246-0.41,0.481-0.634,0.705l-10.624,10.632c-4.494,4.514-10.607,7.043-16.976,7.024h-9.072
          c-8.675-0.031-16.859-4.034-22.208-10.864L246.461,323.384c-1.515-1.948-3.844-3.087-6.312-3.088h-29.496
          c-27.488-0.024-49.921-22.006-50.504-49.488l20.28-75.768c1.132-4.271-1.413-8.651-5.684-9.782
          c-1.089-0.289-2.227-0.344-3.34-0.162l-37.848,6.224c-7.735,1.25-13.418,7.932-13.408,15.768v41.208
          c-0.001,2.348-1.034,4.577-2.824,6.096c-1.82,1.538-4.227,2.194-6.576,1.792c-3.994-0.983-6.749-4.634-6.6-8.744v-60.744
          c0.001-7.246,4.871-13.587,11.872-15.456l77.184-20.544c1.676-0.447,3.161-1.427,4.232-2.792
          c11.693-15.003,30.787-22.218,49.48-18.696c24.393,5.13,41.7,26.869,41.232,51.792v130.064c-0.001,1.486,0.411,2.943,1.192,4.208
          l80,129.232c2.323,3.758,7.253,4.921,11.011,2.598c0.527-0.326,1.015-0.712,1.453-1.15l11.312-11.312
          c3.279-3.586,8.721-4.156,12.672-1.328C409.644,436.428,410.243,442.08,407.127,445.935z"/>
      </g>
    </g>
    <g>
      <g>
        <rect x="256.151" y="464.3" width="64" height="16"/>
      </g>
    </g>
    <g>
      <g>
        <rect x="224.151" y="464.3" width="16" height="16"/>
      </g>
    </g>
    <g>
      <g>
        <rect x="160.151" y="432.3" width="96" height="16"/>
      </g>
    </g>
    <g>
      <g>
        <rect x="0.149" y="464.3" width="16" height="16"/>
      </g>
    </g>
    <g>
      <g>
        <rect x="32.151" y="464.3" width="24" height="16"/>
      </g>
    </g>
    <g>
      <g>
        <rect x="432.151" y="464.3" width="48" height="16"/>
      </g>
    </g>
    <g>
    </g>
    <g>
    </g>
    <g>
    </g>
    <g>
    </g>
    <g>
    </g>
    <g>
    </g>
    <g>
    </g>
    <g>
    </g>
    <g>
    </g>
    <g>
    </g>
    <g>
    </g>
    <g>
    </g>
    <g>
    </g>
    <g>
    </g>
    <g>
    </g>
  </svg>


</svg>
